<?xml version="1.0" standalone="no"?><svg xmlns="http://www.w3.org/2000/svg" viewBox="0 0 1440 320"><path fill="#273036" fill-opacity="1" d="M0,320L0,64L46.5,64L46.5,32L92.9,32L92.9,256L139.4,256L139.4,128L185.8,128L185.8,192L232.3,192L232.3,32L278.7,32L278.7,64L325.2,64L325.2,128L371.6,128L371.6,160L418.1,160L418.1,160L464.5,160L464.5,64L511,64L511,96L557.4,96L557.4,224L603.9,224L603.9,288L650.3,288L650.3,224L696.8,224L696.8,256L743.2,256L743.2,288L789.7,288L789.7,96L836.1,96L836.1,32L882.6,32L882.6,32L929,32L929,64L975.5,64L975.5,256L1021.9,256L1021.9,224L1068.4,224L1068.4,160L1114.8,160L1114.8,64L1161.3,64L1161.3,256L1207.7,256L1207.7,32L1254.2,32L1254.2,160L1300.6,160L1300.6,128L1347.1,128L1347.1,288L1393.5,288L1393.5,192L1440,192L1440,320L1393.5,320L1393.5,320L1347.1,320L1347.1,320L1300.6,320L1300.6,320L1254.2,320L1254.2,320L1207.7,320L1207.7,320L1161.3,320L1161.3,320L1114.8,320L1114.8,320L1068.4,320L1068.4,320L1021.9,320L1021.9,320L975.5,320L975.5,320L929,320L929,320L882.6,320L882.6,320L836.1,320L836.1,320L789.7,320L789.7,320L743.2,320L743.2,320L696.8,320L696.8,320L650.3,320L650.3,320L603.9,320L603.9,320L557.4,320L557.4,320L511,320L511,320L464.5,320L464.5,320L418.1,320L418.1,320L371.6,320L371.6,320L325.2,320L325.2,320L278.7,320L278.7,320L232.3,320L232.3,320L185.8,320L185.8,320L139.4,320L139.4,320L92.9,320L92.9,320L46.5,320L46.5,320L0,320L0,320Z"></path></svg>